<svg width="512" height="512" viewBox="0 0 64 64" xmlns="http://www.w3.org/2000/svg">
  <rect x="0" y="0" width="64" height="64" rx="15" fill="#4C5FF7"/>
  <path d="M 43.00 17.00 Q 39.46 18.06 38.22 17.19 M 38.22 17.19 Q 35.70 16.79 34.15 17.72 M 34.15 17.72 Q 32.99 18.20 30.77 18.53 M 30.77 18.53 Q 29.02 19.64 28.05 19.58 M 28.05 19.58 Q 27.60 20.28 25.97 20.79 M 25.97 20.79 Q 25.66 21.77 24.50 22.12 M 24.50 22.12 Q 24.79 22.21 23.63 23.50 M 23.63 23.50 Q 23.18 24.67 23.31 24.88 M 23.31 24.88 Q 23.89 24.52 23.55 26.21 M 23.55 26.21 Q 24.35 26.74 24.30 27.42 M 24.30 27.42 Q 25.89 28.65 25.54 28.47 M 25.54 28.47 Q 25.53 28.90 27.26 29.28 M 27.26 29.28 Q 29.31 29.98 29.42 29.81 M 29.42 29.81 Q 31.04 30.08 32.00 30.00 M 32.00 30.00 Q 34.24 31.03 34.58 30.19 M 34.58 30.19 Q 35.37 30.08 36.74 30.72 M 36.74 30.72 Q 38.38 30.74 38.46 31.53 M 38.46 31.53 Q 38.28 31.59 39.70 32.58 M 39.70 32.58 Q 39.91 32.71 40.45 33.79 M 40.45 33.79 Q 41.57 34.59 40.69 35.12 M 40.69 35.12 Q 41.06 36.68 40.38 36.50 M 40.38 36.50 Q 38.92 36.67 39.50 37.88 M 39.50 37.88 Q 38.90 38.57 38.03 39.21 M 38.03 39.21 Q 36.81 39.11 35.95 40.42 M 35.95 40.42 Q 35.53 39.92 33.23 41.47 M 33.23 41.47 Q 31.23 41.51 29.85 42.28 M 29.85 42.28 Q 28.19 43.52 25.78 42.81 M 25.78 42.81 Q 23.42 42.14 21.00 43.00 M 43.00 17.00 Q 40.39 16.60 38.22 17.19 M 38.22 17.19 Q 35.87 17.28 34.15 17.72 M 34.15 17.72 Q 32.08 18.20 30.77 18.53 M 30.77 18.53 Q 29.67 18.44 28.05 19.58 M 28.05 19.58 Q 27.94 20.09 25.97 20.79 M 25.97 20.79 Q 26.07 21.76 24.50 22.12 M 24.50 22.12 Q 24.37 22.85 23.63 23.50 M 23.63 23.50 Q 23.48 24.63 23.31 24.88 M 23.31 24.88 Q 24.44 25.31 23.55 26.21 M 23.55 26.21 Q 24.40 26.24 24.30 27.42 M 24.30 27.42 Q 25.12 27.60 25.54 28.47 M 25.54 28.47 Q 26.01 28.62 27.26 29.28 M 27.26 29.28 Q 29.01 30.41 29.42 29.81 M 29.42 29.81 Q 29.81 30.64 32.00 30.00 M 32.00 30.00 Q 32.32 29.88 34.58 30.19 M 34.58 30.19 Q 34.87 29.48 36.74 30.72 M 36.74 30.72 Q 38.74 30.48 38.46 31.53 M 38.46 31.53 Q 39.38 31.24 39.70 32.58 M 39.70 32.58 Q 39.98 33.40 40.45 33.79 M 40.45 33.79 Q 39.74 35.42 40.69 35.12 M 40.69 35.12 Q 41.41 36.71 40.38 36.50 M 40.38 36.50 Q 40.82 38.13 39.50 37.88 M 39.50 37.88 Q 39.37 38.03 38.03 39.21 M 38.03 39.21 Q 35.87 39.24 35.95 40.42 M 35.95 40.42 Q 33.62 39.80 33.23 41.47 M 33.23 41.47 Q 31.81 41.25 29.85 42.28 M 29.85 42.28 Q 28.37 42.52 25.78 42.81 M 25.78 42.81 Q 23.82 42.30 21.00 43.00" fill="none" stroke="#FFFFFF" stroke-width="6.4" stroke-linecap="round" stroke-linejoin="round"/>
</svg>